<svg id="visual" viewBox="0 0 900 450" width="900" height="450" xmlns="http://www.w3.org/2000/svg" xmlns:xlink="http://www.w3.org/1999/xlink" version="1.1"><rect x="0" y="0" width="900" height="450" fill="#001220"></rect><path d="M0 108L21.5 114.3C43 120.7 86 133.3 128.8 152.5C171.7 171.7 214.3 197.3 257.2 187.2C300 177 343 131 385.8 110.2C428.7 89.3 471.3 93.7 514.2 101C557 108.3 600 118.7 642.8 127.2C685.7 135.7 728.3 142.3 771.2 145C814 147.7 857 146.3 878.5 145.7L900 145L900 451L878.5 451C857 451 814 451 771.2 451C728.3 451 685.7 451 642.8 451C600 451 557 451 514.2 451C471.3 451 428.7 451 385.8 451C343 451 300 451 257.2 451C214.3 451 171.7 451 128.8 451C86 451 43 451 21.5 451L0 451Z" fill="#71aae6"></path><path d="M0 199L21.5 203.7C43 208.3 86 217.7 128.8 226.8C171.7 236 214.3 245 257.2 251.3C300 257.7 343 261.3 385.8 255.8C428.7 250.3 471.3 235.7 514.2 218.3C557 201 600 181 642.8 168.8C685.7 156.7 728.3 152.3 771.2 156C814 159.7 857 171.3 878.5 177.2L900 183L900 451L878.5 451C857 451 814 451 771.2 451C728.3 451 685.7 451 642.8 451C600 451 557 451 514.2 451C471.3 451 428.7 451 385.8 451C343 451 300 451 257.2 451C214.3 451 171.7 451 128.8 451C86 451 43 451 21.5 451L0 451Z" fill="#509cf0"></path><path d="M0 238L21.5 249.2C43 260.3 86 282.7 128.8 293C171.7 303.3 214.3 301.7 257.2 285.5C300 269.3 343 238.7 385.8 238.2C428.7 237.7 471.3 267.3 514.2 275.3C557 283.3 600 269.7 642.8 267C685.7 264.3 728.3 272.7 771.2 265C814 257.3 857 233.7 878.5 221.8L900 210L900 451L878.5 451C857 451 814 451 771.2 451C728.3 451 685.7 451 642.8 451C600 451 557 451 514.2 451C471.3 451 428.7 451 385.8 451C343 451 300 451 257.2 451C214.3 451 171.7 451 128.8 451C86 451 43 451 21.5 451L0 451Z" fill="#2b8cf8"></path><path d="M0 362L21.5 349.8C43 337.7 86 313.3 128.8 303.2C171.7 293 214.3 297 257.2 302.8C300 308.7 343 316.3 385.8 324.2C428.7 332 471.3 340 514.2 338.8C557 337.7 600 327.3 642.8 316.5C685.7 305.7 728.3 294.3 771.2 300.7C814 307 857 331 878.5 343L900 355L900 451L878.5 451C857 451 814 451 771.2 451C728.3 451 685.7 451 642.8 451C600 451 557 451 514.2 451C471.3 451 428.7 451 385.8 451C343 451 300 451 257.2 451C214.3 451 171.7 451 128.8 451C86 451 43 451 21.5 451L0 451Z" fill="#007afd"></path><path d="M0 373L21.5 372.7C43 372.3 86 371.7 128.8 375.3C171.7 379 214.3 387 257.2 384C300 381 343 367 385.8 358.7C428.7 350.3 471.3 347.7 514.2 349.7C557 351.7 600 358.3 642.8 359.7C685.7 361 728.3 357 771.2 355C814 353 857 353 878.5 353L900 353L900 451L878.5 451C857 451 814 451 771.2 451C728.3 451 685.7 451 642.8 451C600 451 557 451 514.2 451C471.3 451 428.7 451 385.8 451C343 451 300 451 257.2 451C214.3 451 171.7 451 128.8 451C86 451 43 451 21.5 451L0 451Z" fill="#0066ff"></path></svg>