<svg id="visual" viewBox="0 0 900 450" width="900" height="450" xmlns="http://www.w3.org/2000/svg" xmlns:xlink="http://www.w3.org/1999/xlink" version="1.1"><rect x="0" y="0" width="900" height="450" fill="#0a0a0a"></rect><path d="M0 293L16.7 280.8C33.3 268.7 66.7 244.3 100 242.8C133.3 241.3 166.7 262.7 200 269.7C233.3 276.7 266.7 269.3 300 274C333.3 278.7 366.7 295.3 400 298.7C433.3 302 466.7 292 500 287C533.3 282 566.7 282 600 281.8C633.3 281.7 666.7 281.3 700 278.3C733.3 275.3 766.7 269.7 800 272.5C833.3 275.3 866.7 286.7 883.3 292.3L900 298L900 451L883.3 451C866.7 451 833.3 451 800 451C766.7 451 733.3 451 700 451C666.7 451 633.3 451 600 451C566.7 451 533.3 451 500 451C466.7 451 433.3 451 400 451C366.7 451 333.3 451 300 451C266.7 451 233.3 451 200 451C166.7 451 133.3 451 100 451C66.7 451 33.3 451 16.7 451L0 451Z" fill="#aa00ff"></path><path d="M0 303L16.7 301.5C33.3 300 66.7 297 100 299.3C133.3 301.7 166.7 309.3 200 309.3C233.3 309.3 266.7 301.7 300 302.7C333.3 303.7 366.7 313.3 400 309.5C433.3 305.7 466.7 288.3 500 276.2C533.3 264 566.7 257 600 256.8C633.3 256.7 666.7 263.3 700 270.5C733.3 277.7 766.7 285.3 800 295C833.3 304.7 866.7 316.3 883.3 322.2L900 328L900 451L883.3 451C866.7 451 833.3 451 800 451C766.7 451 733.3 451 700 451C666.7 451 633.3 451 600 451C566.7 451 533.3 451 500 451C466.7 451 433.3 451 400 451C366.7 451 333.3 451 300 451C266.7 451 233.3 451 200 451C166.7 451 133.3 451 100 451C66.7 451 33.3 451 16.7 451L0 451Z" fill="#8817c8"></path><path d="M0 323L16.7 325C33.3 327 66.7 331 100 332.8C133.3 334.7 166.7 334.3 200 327.5C233.3 320.7 266.7 307.3 300 310.2C333.3 313 366.7 332 400 339.7C433.3 347.3 466.7 343.7 500 338.8C533.3 334 566.7 328 600 321.2C633.3 314.3 666.7 306.7 700 303.2C733.3 299.7 766.7 300.3 800 301.8C833.3 303.3 866.7 305.7 883.3 306.8L900 308L900 451L883.3 451C866.7 451 833.3 451 800 451C766.7 451 733.3 451 700 451C666.7 451 633.3 451 600 451C566.7 451 533.3 451 500 451C466.7 451 433.3 451 400 451C366.7 451 333.3 451 300 451C266.7 451 233.3 451 200 451C166.7 451 133.3 451 100 451C66.7 451 33.3 451 16.7 451L0 451Z" fill="#681c94"></path><path d="M0 326L16.7 326.7C33.3 327.3 66.7 328.7 100 337.8C133.3 347 166.7 364 200 368.5C233.3 373 266.7 365 300 355.7C333.3 346.3 366.7 335.7 400 330.7C433.3 325.7 466.7 326.3 500 334.7C533.3 343 566.7 359 600 368.2C633.3 377.3 666.7 379.7 700 372.3C733.3 365 766.7 348 800 342.3C833.3 336.7 866.7 342.3 883.3 345.2L900 348L900 451L883.3 451C866.7 451 833.3 451 800 451C766.7 451 733.3 451 700 451C666.7 451 633.3 451 600 451C566.7 451 533.3 451 500 451C466.7 451 433.3 451 400 451C366.7 451 333.3 451 300 451C266.7 451 233.3 451 200 451C166.7 451 133.3 451 100 451C66.7 451 33.3 451 16.7 451L0 451Z" fill="#481b63"></path><path d="M0 357L16.7 362.8C33.3 368.7 66.7 380.3 100 387.3C133.3 394.3 166.7 396.7 200 398.3C233.3 400 266.7 401 300 401.3C333.3 401.7 366.7 401.3 400 401.2C433.3 401 466.7 401 500 395.3C533.3 389.7 566.7 378.3 600 371.7C633.3 365 666.7 363 700 369C733.3 375 766.7 389 800 396.2C833.3 403.3 866.7 403.7 883.3 403.8L900 404L900 451L883.3 451C866.7 451 833.3 451 800 451C766.7 451 733.3 451 700 451C666.7 451 633.3 451 600 451C566.7 451 533.3 451 500 451C466.7 451 433.3 451 400 451C366.7 451 333.3 451 300 451C266.7 451 233.3 451 200 451C166.7 451 133.3 451 100 451C66.7 451 33.3 451 16.7 451L0 451Z" fill="#2b1636"></path><path d="M0 426L16.7 423.5C33.3 421 66.7 416 100 409.8C133.3 403.7 166.7 396.3 200 398.3C233.3 400.3 266.7 411.7 300 415C333.3 418.3 366.7 413.7 400 412.8C433.3 412 466.7 415 500 417.5C533.3 420 566.7 422 600 419.7C633.3 417.3 666.7 410.7 700 409.2C733.3 407.7 766.7 411.3 800 409.8C833.3 408.3 866.7 401.7 883.3 398.3L900 395L900 451L883.3 451C866.7 451 833.3 451 800 451C766.7 451 733.3 451 700 451C666.7 451 633.3 451 600 451C566.7 451 533.3 451 500 451C466.7 451 433.3 451 400 451C366.7 451 333.3 451 300 451C266.7 451 233.3 451 200 451C166.7 451 133.3 451 100 451C66.7 451 33.3 451 16.7 451L0 451Z" fill="#0a0a0a"></path></svg>